<svg width="232" height="73" viewBox="0 0 232 73" fill="none" xmlns="http://www.w3.org/2000/svg">
<path d="M0.604084 58.9927V0.672657H28.4441C34.2574 0.672657 38.6574 2.05932 41.6441 4.83266C44.6308 7.55266 46.1241 11.1527 46.1241 15.6327C46.1241 17.8193 45.7241 19.7927 44.9241 21.5527C44.1241 23.2593 42.9774 24.726 41.4841 25.9527C39.9908 27.1793 38.1774 28.0327 36.0441 28.5127L35.9641 28.9927C38.6308 29.4193 40.8174 30.2727 42.5241 31.5527C44.2308 32.8327 45.5108 34.406 46.3641 36.2727C47.2174 38.1393 47.6441 40.1927 47.6441 42.4327C47.6441 46.006 46.8174 49.046 45.1641 51.5527C43.5641 54.006 41.2441 55.8727 38.2041 57.1527C35.1641 58.3793 31.4841 58.9927 27.1641 58.9927H0.604084ZM10.9241 50.7527H26.0441C29.7774 50.7527 32.4974 49.926 34.2041 48.2727C35.9641 46.6193 36.8441 44.4593 36.8441 41.7927C36.8441 38.9127 35.9374 36.7527 34.1241 35.3127C32.3641 33.8727 29.9108 33.1527 26.7641 33.1527H9.88409V25.2327H26.2841C28.3641 25.2327 30.0708 24.886 31.4041 24.1927C32.7908 23.4993 33.8041 22.566 34.4441 21.3927C35.1374 20.166 35.4841 18.726 35.4841 17.0727C35.4841 14.406 34.5774 12.3793 32.7641 10.9927C31.0041 9.55266 28.6574 8.83266 25.7241 8.83266H10.9241V50.7527ZM67.4791 59.7127C64.2791 59.7127 61.5324 59.0727 59.2391 57.7927C56.9458 56.5127 55.1858 54.6193 53.9591 52.1127C52.7858 49.5527 52.1991 46.4593 52.1991 42.8327V16.4327H62.1991V40.1927C62.1991 42.5927 62.5191 44.646 63.1591 46.3527C63.7991 48.006 64.7858 49.286 66.1191 50.1927C67.4524 51.0993 69.1858 51.5527 71.3191 51.5527C73.4524 51.5527 75.2924 51.0193 76.8391 49.9527C78.4391 48.886 79.6658 47.4727 80.5191 45.7127C81.3724 43.8993 81.7991 41.8727 81.7991 39.6327V16.4327H91.7991V58.9927H82.1991L81.7991 50.7527H81.3191C80.2524 53.6327 78.4658 55.846 75.9591 57.3927C73.5058 58.9393 70.6791 59.7127 67.4791 59.7127ZM98.5285 58.9927V16.4327H108.128L108.528 24.5127H109.008C110.235 21.526 112.102 19.3127 114.608 17.8727C117.115 16.3793 119.915 15.6327 123.008 15.6327C125.142 15.6327 127.115 15.9793 128.928 16.6727C130.795 17.3127 132.395 18.3527 133.729 19.7927C135.115 21.1793 136.182 23.0193 136.929 25.3127C137.729 27.5527 138.129 30.2727 138.129 33.4727V58.9927H128.128V35.6327C128.128 32.966 127.808 30.7793 127.168 29.0727C126.528 27.3127 125.542 26.006 124.208 25.1527C122.928 24.2993 121.248 23.8727 119.168 23.8727C116.928 23.8727 115.008 24.406 113.408 25.4727C111.862 26.5393 110.662 27.9527 109.808 29.7127C108.955 31.4727 108.528 33.4193 108.528 35.5527V58.9927H98.5285ZM158.698 59.7127C155.498 59.7127 152.751 59.0727 150.458 57.7927C148.165 56.5127 146.405 54.6193 145.178 52.1127C144.005 49.5527 143.418 46.4593 143.418 42.8327V16.4327H153.418V40.1927C153.418 42.5927 153.738 44.646 154.378 46.3527C155.018 48.006 156.005 49.286 157.338 50.1927C158.671 51.0993 160.405 51.5527 162.538 51.5527C164.671 51.5527 166.511 51.0193 168.058 49.9527C169.658 48.886 170.885 47.4727 171.738 45.7127C172.591 43.8993 173.018 41.8727 173.018 39.6327V16.4327H183.018V58.9927H173.418L173.018 50.7527H172.538C171.471 53.6327 169.685 55.846 167.178 57.3927C164.725 58.9393 161.898 59.7127 158.698 59.7127ZM189.747 72.3527V16.4327H199.267L199.667 24.1927H200.227C201.134 21.6327 202.814 19.5793 205.267 18.0327C207.721 16.4327 210.627 15.6327 213.987 15.6327C216.601 15.6327 218.974 16.1393 221.107 17.1527C223.241 18.166 225.081 19.6327 226.627 21.5527C228.174 23.4193 229.347 25.7127 230.147 28.4327C231.001 31.1527 231.427 34.246 231.427 37.7127C231.427 42.2993 230.681 46.246 229.187 49.5527C227.747 52.8593 225.721 55.3927 223.107 57.1527C220.494 58.9127 217.454 59.7927 213.987 59.7927C211.747 59.7927 209.694 59.446 207.827 58.7527C205.961 58.006 204.361 56.9927 203.027 55.7127C201.747 54.4327 200.814 52.966 200.227 51.3127H199.747V72.3527H189.747ZM210.227 51.6327C212.574 51.6327 214.574 51.0727 216.227 49.9527C217.881 48.8327 219.107 47.2327 219.907 45.1527C220.761 43.0193 221.187 40.5393 221.187 37.7127C221.187 34.8327 220.787 32.3527 219.987 30.2727C219.187 28.1927 217.987 26.5927 216.387 25.4727C214.787 24.3527 212.814 23.7927 210.467 23.7927C208.121 23.7927 206.147 24.326 204.547 25.3927C202.947 26.406 201.747 27.8193 200.947 29.6327C200.147 31.3927 199.747 33.3393 199.747 35.4727V40.0327C199.747 42.2193 200.174 44.1927 201.027 45.9527C201.881 47.6593 203.081 49.046 204.627 50.1127C206.174 51.126 208.041 51.6327 210.227 51.6327Z" fill="url(#paint0_linear_107_89)"/>
<defs>
<linearGradient id="paint0_linear_107_89" x1="114.684" y1="-28.0073" x2="114.684" y2="84.9927" gradientUnits="userSpaceOnUse">
<stop stop-color="#F0DB4F"/>
<stop offset="1" stop-color="#FF5D13"/>
</linearGradient>
</defs>
</svg>
